<?xml version="1.0" standalone="no"?>
<!DOCTYPE svg PUBLIC "-//W3C//DTD SVG 20010904//EN"
 "http://www.w3.org/TR/2001/REC-SVG-20010904/DTD/svg10.dtd">
<svg version="1.0" xmlns="http://www.w3.org/2000/svg"
 width="193.000000pt" height="122.000000pt" viewBox="0 0 193.000000 122.000000"
 preserveAspectRatio="xMidYMid meet">

<g transform="translate(0.000000,122.000000) scale(0.100000,-0.100000)"
fill="#000000" stroke="none">
<path d="M600 1162 c-1 -36 57 -103 143 -167 21 -15 47 -41 58 -57 l21 -29
-30 -57 c-16 -31 -32 -76 -36 -100 -7 -47 8 -51 17 -5 16 78 123 163 207 163
81 0 162 -46 195 -111 18 -33 16 -35 -53 -44 -47 -6 -56 -4 -73 14 -26 28 -63
36 -100 21 -38 -16 -59 -57 -59 -115 0 -96 99 -141 161 -74 28 30 32 31 83 25
l53 -7 7 32 c14 73 7 134 -25 197 -37 74 -36 77 73 168 75 62 118 115 118 143
0 9 -8 1 -17 -17 -9 -19 -39 -53 -67 -75 -28 -23 -74 -65 -102 -94 -60 -61
-76 -57 -67 18 5 42 3 50 -20 73 -30 30 -59 37 -35 9 27 -32 28 -51 5 -66 -16
-10 -30 -11 -49 -5 -17 6 -39 6 -55 0 -20 -6 -34 -5 -50 5 -23 15 -22 34 5 66
21 24 0 21 -33 -5 -25 -19 -27 -26 -23 -75 4 -39 1 -57 -10 -66 -12 -10 -16
-9 -20 3 -6 18 -66 77 -141 139 -29 24 -59 58 -67 75 -7 17 -13 25 -14 18z"/>
<path d="M184 470 c-30 -12 -64 -58 -64 -87 0 -62 60 -113 117 -98 33 8 63 33
63 52 0 15 -46 18 -55 3 -9 -14 -48 -13 -63 2 -7 7 -12 24 -12 38 0 45 38 64
79 38 10 -6 27 -8 37 -4 16 6 16 9 -7 31 -28 28 -65 38 -95 25z"/>
<path d="M621 463 c-12 -8 -21 -10 -21 -4 0 6 -11 11 -25 11 -25 0 -25 -1 -25
-90 0 -89 0 -90 25 -90 23 0 24 4 27 61 2 46 8 65 21 73 26 16 37 -7 37 -76 0
-55 1 -58 25 -58 23 0 24 3 27 68 3 59 5 67 23 67 18 0 20 -8 23 -67 3 -65 4
-68 28 -68 25 0 25 1 22 76 -3 70 -5 79 -30 97 -24 18 -28 18 -57 4 -17 -8
-33 -12 -36 -7 -10 15 -44 17 -64 3z"/>
<path d="M922 464 c-12 -8 -22 -10 -22 -5 0 6 -11 11 -25 11 -25 0 -25 -1 -25
-90 0 -89 0 -90 25 -90 23 0 24 4 27 61 2 46 8 65 21 73 26 16 37 -7 37 -76 0
-55 1 -58 25 -58 23 0 24 3 27 68 3 59 5 67 23 67 18 0 20 -8 23 -67 3 -65 4
-68 28 -68 25 0 25 1 22 76 -3 70 -5 79 -30 97 -24 18 -29 18 -56 5 -24 -13
-32 -13 -47 -1 -24 16 -26 16 -53 -3z"/>
<path d="M1322 464 c-12 -8 -22 -10 -22 -5 0 6 -11 11 -25 11 -25 0 -25 -1
-25 -90 0 -89 0 -90 25 -90 23 0 24 4 27 61 3 65 19 88 52 76 12 -5 16 -20 16
-72 0 -63 1 -65 25 -65 24 0 25 2 25 69 0 51 -4 74 -17 89 -25 29 -55 35 -81
16z"/>
<path d="M1515 471 c-56 -23 -77 -88 -46 -138 23 -37 61 -51 97 -34 23 10 25
9 22 -10 -4 -32 -33 -47 -58 -31 -48 30 -84 0 -38 -32 35 -25 94 -20 123 9 23
23 25 31 25 130 l0 105 -25 0 c-14 0 -25 -5 -25 -11 0 -5 -10 -3 -22 5 -25 18
-25 18 -53 7z m63 -53 c32 -32 -7 -100 -46 -79 -33 18 -41 51 -16 75 18 19 45
21 62 4z"/>
<path d="M1717 468 c-56 -20 -41 -89 24 -103 34 -8 46 -22 30 -38 -9 -9 -16
-8 -31 1 -22 14 -70 16 -70 4 0 -16 36 -42 68 -48 42 -9 91 12 98 42 9 37 -8
52 -90 78 -15 5 -16 9 -6 21 8 10 18 11 36 4 14 -5 34 -9 45 -9 30 0 7 35 -32
49 -37 13 -35 13 -72 -1z"/>
<path d="M333 454 c-3 -8 -3 -41 0 -72 7 -66 43 -109 81 -97 12 4 38 7 59 6
l37 -1 0 90 c0 89 0 90 -25 90 -24 0 -25 -3 -25 -58 0 -60 -11 -82 -42 -82
-25 0 -38 31 -38 89 0 45 -3 51 -20 51 -11 0 -23 -7 -27 -16z"/>
<path d="M1157 463 c-4 -3 -7 -44 -7 -90 0 -82 0 -83 25 -83 25 0 25 1 25 90
0 81 -2 90 -18 90 -10 0 -22 -3 -25 -7z"/>
<path d="M160 205 c0 -8 4 -15 9 -15 6 0 11 -17 13 -37 4 -52 28 -56 28 -4 0
30 4 41 15 41 8 0 15 7 15 15 0 11 -11 15 -40 15 -29 0 -40 -4 -40 -15z"/>
<path d="M260 165 l0 -56 37 3 c42 3 59 28 19 28 -14 0 -26 5 -26 10 0 6 7 10
15 10 21 0 19 20 -2 21 -13 1 -11 3 5 7 36 11 31 27 -10 30 l-38 3 0 -56z"/>
<path d="M360 165 c0 -56 13 -73 24 -32 l6 22 15 -22 c23 -33 30 -29 32 24 2
52 -7 63 -49 63 -27 0 -28 -2 -28 -55z m52 13 c-9 -9 -15 -9 -24 0 -9 9 -7 12
12 12 19 0 21 -3 12 -12z"/>
<path d="M467 213 c-11 -10 -8 -91 3 -98 6 -3 14 4 18 16 8 21 9 21 16 3 7
-18 8 -18 20 -1 13 16 14 16 19 -4 9 -35 27 -11 27 36 0 40 -19 73 -27 48 -2
-6 -10 -19 -17 -29 -14 -18 -15 -18 -27 9 -12 27 -20 32 -32 20z"/>
<path d="M592 169 c2 -30 8 -53 13 -51 15 3 12 95 -3 100 -10 3 -12 -9 -10
-49z"/>
<path d="M640 205 c0 -8 7 -15 15 -15 11 0 15 -11 15 -40 0 -22 5 -40 10 -40
6 0 10 18 10 40 0 29 4 40 15 40 8 0 15 7 15 15 0 11 -11 15 -40 15 -29 0 -40
-4 -40 -15z"/>
<path d="M742 168 l3 -53 34 0 c19 0 36 6 39 13 2 7 -6 12 -22 12 -14 0 -26 5
-26 10 0 6 7 10 15 10 21 0 19 20 -2 21 -13 1 -11 3 5 7 37 11 31 27 -11 30
l-38 3 3 -53z"/>
<path d="M901 206 c-7 -8 -10 -20 -6 -26 4 -6 1 -18 -6 -26 -18 -21 3 -39 47
-39 31 0 34 3 34 29 0 20 -4 27 -14 23 -8 -3 -20 1 -26 9 -12 14 -11 15 10 18
6 0 11 6 13 11 4 16 -39 17 -52 1z m29 -60 c0 -3 -4 -8 -10 -11 -5 -3 -10 -1
-10 4 0 6 5 11 10 11 6 0 10 -2 10 -4z"/>
<path d="M1044 206 c-9 -24 0 -89 14 -94 7 -2 12 5 12 16 0 13 8 22 21 24 12
2 27 11 33 21 9 15 7 21 -8 33 -25 18 -65 18 -72 0z m56 -26 c0 -5 -7 -10 -15
-10 -8 0 -15 5 -15 10 0 6 7 10 15 10 8 0 15 -4 15 -10z"/>
<path d="M1150 165 l0 -55 35 0 c24 0 35 5 35 15 0 10 -10 15 -27 15 -25 1
-26 2 -10 14 9 7 17 16 17 19 0 3 -8 8 -17 10 -11 3 -7 5 10 6 43 2 36 31 -8
31 l-35 0 0 -55z"/>
<path d="M1252 208 c-19 -19 -14 -36 16 -52 25 -14 25 -15 5 -16 -29 0 -38
-17 -13 -25 56 -18 88 43 33 63 -25 9 -25 11 -6 11 27 1 38 17 17 25 -24 9
-39 7 -52 -6z"/>
<path d="M1335 211 c-3 -6 1 -13 9 -18 8 -4 16 -23 18 -42 5 -51 28 -52 28 -2
0 30 4 41 15 41 8 0 15 7 15 15 0 11 -11 15 -39 15 -22 0 -42 -4 -46 -9z"/>
</g>
</svg>
